<svg xmlns="http://www.w3.org/2000/svg" width="830" height="545.341" viewBox="0 0 830 545.341">
  <polygon points="415 0 207.5 0 0 0 0 95 0.044 95 155.625 119.993 311.206 95 311.294 95 466.875 119.993 622.456 95 622.5 95 622.5 0 415 0" fill="#364149"/>
  <polygon points="622.5 0 622.5 95 622.53 95 726.25 119.78 829.97 95 830 95 830 0 622.5 0" fill="#018bff"/>
  <text transform="translate(56.301 64)" font-size="20" fill="#fff" font-family="QanelasSoft-Regular, Qanelas Soft"><tspan letter-spacing="-0.04em">P</tspan><tspan x="10.8" y="0" letter-spacing="-0.005em">o</tspan><tspan x="22.819" y="0" letter-spacing="-0.01em">s</tspan><tspan x="31.819" y="0">t</tspan><tspan x="38.119" y="0" letter-spacing="-0.04em">P</tspan><tspan x="48.919" y="0">e</tspan><tspan x="60.299" y="0" letter-spacing="-0.015em">r</tspan><tspan x="66.279" y="0">si</tspan><tspan x="79.599" y="0" letter-spacing="-0.01em">s</tspan><tspan x="88.598" y="0">t</tspan></text>
  <text transform="translate(468.901 64)" font-size="20" fill="#fff" font-family="QanelasSoft-Regular, Qanelas Soft"><tspan letter-spacing="-0.01em">P</tspan><tspan x="11.399" y="0" letter-spacing="-0.03em">r</tspan><tspan x="17.08" y="0">e</tspan><tspan x="28.46" y="0" letter-spacing="-0.03em">R</tspan><tspan x="40.46" y="0">em</tspan><tspan x="67.199" y="0" letter-spacing="-0.015em">o</tspan><tspan x="79.019" y="0" letter-spacing="-0.005em">v</tspan><tspan x="88.318" y="0">e</tspan></text>
  <text transform="translate(259.651 64)" font-size="20" fill="#fff" font-family="QanelasSoft-Regular, Qanelas Soft"><tspan letter-spacing="-0.04em">P</tspan><tspan x="10.8" y="0" letter-spacing="-0.005em">o</tspan><tspan x="22.82" y="0" letter-spacing="-0.01em">s</tspan><tspan x="31.819" y="0">tUpda</tspan><tspan x="85.918" y="0" letter-spacing="-0.02em">t</tspan><tspan x="91.818" y="0">e</tspan></text>
  <text transform="translate(685.221 64)" font-size="20" fill="#fff" font-family="QanelasSoft-Regular, Qanelas Soft"><tspan letter-spacing="-0.04em">P</tspan><tspan x="10.8" y="0" letter-spacing="-0.005em">o</tspan><tspan x="22.82" y="0" letter-spacing="-0.01em">s</tspan><tspan x="31.82" y="0">tFlush</tspan></text>
  <g>
    <rect x="20" y="140.213" width="271.25" height="100" fill="none"/>
    <text transform="translate(113.806 176.606)" font-size="20" font-family="QanelasSoft-Regular, Qanelas Soft">Has Entity<tspan font-size="13" font-family="RobotoMono-Regular, Roboto Mono"><tspan x="-43.995" y="20">NodeAttributeInterface</tspan></tspan><tspan x="36.469" y="44">?</tspan></text>
    <path d="M155.625,142.344l129.843,47.869L155.625,238.081,25.782,190.213l129.843-47.869m0-2.131L20,190.213l135.625,50,135.625-50-135.625-50Z"/>
  </g>
  <g>
    <rect x="331.25" y="140.213" width="271.25" height="100" fill="none"/>
    <text transform="translate(425.056 176.606)" font-size="20" font-family="QanelasSoft-Regular, Qanelas Soft">Has Entity<tspan font-size="13" font-family="RobotoMono-Regular, Roboto Mono"><tspan x="-59.598" y="20">RelationAttributeInterface</tspan></tspan><tspan x="36.469" y="44">?</tspan></text>
    <path d="M466.875,142.344l129.843,47.869L466.875,238.081,337.032,190.213l129.843-47.869m0-2.131-135.625,50,135.625,50,135.625-50-135.625-50Z"/>
  </g>
  <polygon points="156.625 251.213 156.625 238.213 154.625 238.213 154.625 251.213 150.429 251.213 155.625 260.213 160.821 251.213 156.625 251.213"/>
  <text transform="translate(162.821 252.262)" font-size="10" font-family="QanelasSoft-Regular, Qanelas Soft">YES</text>
  <polygon points="467.875 251.213 467.875 238.213 465.875 238.213 465.875 251.213 461.679 251.213 466.875 260.213 472.071 251.213 467.875 251.213"/>
  <text transform="translate(474.071 252.262)" font-size="10" font-family="QanelasSoft-Regular, Qanelas Soft">YES</text>
  <g>
    <path d="M249.663,262.213v71.128H61.587V262.213H249.663m2-2H59.587v75.128H251.663V260.213Z"/>
    <text transform="translate(71.737 284.777)" font-size="20" font-family="QanelasSoft-Regular, Qanelas Soft">C<tspan x="15.3" y="0" letter-spacing="-0.03em">r</tspan><tspan x="20.979" y="0">ea</tspan><tspan x="42.319" y="0" letter-spacing="-0.02em">t</tspan><tspan x="48.219" y="0">e Node</tspan><tspan x="113.418" y="0" letter-spacing="-0.03em">V</tspan><tspan x="124.978" y="0">O </tspan><tspan x="146.058" y="0" letter-spacing="-0.02em">b</tspan><tspan x="158.377" y="0">y</tspan><tspan font-size="13" font-family="RobotoMono-Regular, Roboto Mono"><tspan x="-1.925" y="20">NodeAttributeInterface</tspan><tspan x="13.677" y="40">-&gt;getNode($entity)</tspan></tspan></text>
  </g>
  <g>
    <path d="M289.25,357.341v56H22v-56H289.25m2-2H20v60H291.25v-60Z"/>
    <text transform="translate(36.037 380.341)" font-size="20" font-family="QanelasSoft-Regular, Qanelas Soft">Gene<tspan x="49.02" y="0" letter-spacing="-0.01em">r</tspan><tspan x="55.1" y="0">a</tspan><tspan x="65.059" y="0" letter-spacing="-0.02em">t</tspan><tspan x="70.959" y="0">e Neo4j </tspan><tspan x="144.438" y="0" letter-spacing="-0.01em">st</tspan><tspan x="159.538" y="0">a</tspan><tspan x="169.498" y="0" letter-spacing="-0.02em">t</tspan><tspan x="175.397" y="0">emen</tspan><tspan x="223.877" y="0" letter-spacing="-0.01em">t</tspan><tspan x="229.977" y="0">s </tspan><tspan x="59.129" y="24">f</tspan><tspan x="65.429" y="24" letter-spacing="-0.03em">r</tspan><tspan x="71.108" y="24">om Node</tspan><tspan x="152.407" y="24" letter-spacing="-0.03em">V</tspan><tspan x="163.967" y="24" letter-spacing="0em">O</tspan></text>
  </g>
  <polygon points="156.625 346.341 156.625 333.342 154.625 333.342 154.625 346.341 150.429 346.341 155.625 355.341 160.821 346.341 156.625 346.341"/>
  <g>
    <path d="M576.456,262.213v71.128H357.294V262.213H576.456m2-2H355.294v75.128H578.456V260.213Z"/>
    <text transform="translate(372.217 284.777)" font-size="20" font-family="QanelasSoft-Regular, Qanelas Soft">C<tspan x="15.3" y="0" letter-spacing="-0.03em">r</tspan><tspan x="20.979" y="0">ea</tspan><tspan x="42.319" y="0" letter-spacing="-0.02em">t</tspan><tspan x="48.219" y="0">e </tspan><tspan x="64.599" y="0" letter-spacing="-0.03em">R</tspan><tspan x="76.599" y="0">elation</tspan><tspan x="134.958" y="0" letter-spacing="-0.03em">V</tspan><tspan x="146.518" y="0">O </tspan><tspan x="167.598" y="0" letter-spacing="-0.02em">b</tspan><tspan x="179.917" y="0">y</tspan><tspan font-size="13" font-family="RobotoMono-Regular, Roboto Mono"><tspan x="-6.758" y="20">RelationAttributeInterface</tspan><tspan x="8.844" y="40">-&gt;getRelation($entity)</tspan></tspan></text>
  </g>
  <g>
    <path d="M600.5,357.341v56H333.25v-56H600.5m2-2H331.25v60H602.5v-60Z"/>
    <text transform="translate(347.287 380.341)" font-size="20" font-family="QanelasSoft-Regular, Qanelas Soft">Gene<tspan x="49.02" y="0" letter-spacing="-0.01em">r</tspan><tspan x="55.1" y="0">a</tspan><tspan x="65.059" y="0" letter-spacing="-0.02em">t</tspan><tspan x="70.959" y="0">e Neo4j </tspan><tspan x="144.438" y="0" letter-spacing="-0.01em">st</tspan><tspan x="159.538" y="0">a</tspan><tspan x="169.498" y="0" letter-spacing="-0.02em">t</tspan><tspan x="175.397" y="0">emen</tspan><tspan x="223.877" y="0" letter-spacing="-0.01em">t</tspan><tspan x="229.977" y="0">s </tspan><tspan x="48.359" y="24">f</tspan><tspan x="54.659" y="24" letter-spacing="-0.03em">r</tspan><tspan x="60.339" y="24">om </tspan><tspan x="92.818" y="24" letter-spacing="-0.03em">R</tspan><tspan x="104.818" y="24">elation</tspan><tspan x="163.177" y="24" letter-spacing="-0.03em">V</tspan><tspan x="174.737" y="24">O</tspan></text>
  </g>
  <polygon points="467.875 346.341 467.875 333.342 465.875 333.342 465.875 346.341 461.679 346.341 466.875 355.341 472.071 346.341 467.875 346.341"/>
  <g>
    <path d="M388.848,437.341v56h-155.2v-56h155.2m2-2h-159.2v60h159.2v-60Z"/>
    <text transform="translate(242.461 460.341)" font-size="20" font-family="QanelasSoft-Regular, Qanelas Soft"><tspan letter-spacing="-0.01em">A</tspan><tspan x="12.4" y="0">dd </tspan><tspan x="42.839" y="0" letter-spacing="-0.01em">st</tspan><tspan x="57.939" y="0">a</tspan><tspan x="67.899" y="0" letter-spacing="-0.02em">t</tspan><tspan x="73.799" y="0">emen</tspan><tspan x="122.278" y="0" letter-spacing="-0.01em">t</tspan><tspan x="128.378" y="0">s </tspan><tspan x="4.86" y="24" letter-spacing="-0.02em">t</tspan><tspan x="10.76" y="24">o Neo4j client</tspan></text>
  </g>
  <path d="M229.921,464.342l-7.269-4.2v4.2H159.625a3,3,0,0,1-3-3v-46h-2v46a5,5,0,0,0,5,5h63.027v4.2l7.268-4.2,1.732-1Z"/>
  <path d="M392.579,464.341l7.269-4.2v4.2h63.027a3,3,0,0,0,3-3v-46h2v46a5,5,0,0,1-5,5H399.848v4.2l-7.268-4.2-1.732-1Z"/>
  <g>
    <path d="M791.778,142v70.111H660.722V142H791.778m2-2H658.722v74.111H793.778V140Z"/>
    <g>
      <path d="M710.334,164h-.8a.617.617,0,0,1-.5-.22l-4.726-5.381h-3.116v5.2a.359.359,0,0,1-.4.4h-.6a.359.359,0,0,1-.4-.4V150.4a.359.359,0,0,1,.4-.4h4.6a4.2,4.2,0,0,1,1.119,8.25l4.641,5.253C710.773,163.76,710.674,164,710.334,164Zm-9.143-6.921h3.6a2.882,2.882,0,0,0,0-5.762h-3.6Z"/>
      <path d="M719.354,154.4v9.2a.36.36,0,0,1-.4.4h-.519a.359.359,0,0,1-.4-.4v-.927a3.543,3.543,0,0,1-6.482-2.134V154.4a.359.359,0,0,1,.4-.4h.52a.359.359,0,0,1,.4.4v6.141a2.2,2.2,0,0,0,2.32,2.421c1.362,0,2.842-.84,2.842-3.321V154.4a.359.359,0,0,1,.4-.4h.519A.36.36,0,0,1,719.354,154.4Z"/>
      <path d="M726.553,153.758a3.418,3.418,0,0,1,3.4,3.7V163.6a.359.359,0,0,1-.4.4h-.52a.358.358,0,0,1-.4-.4v-6.142a2.2,2.2,0,0,0-2.321-2.42c-1.361,0-2.841.84-2.841,3.321V163.6a.359.359,0,0,1-.4.4h-.519a.36.36,0,0,1-.4-.4v-9.2a.36.36,0,0,1,.4-.4h.519a.359.359,0,0,1,.4.4v.927a3.411,3.411,0,0,1,3.08-1.567Z"/>
      <path d="M744.912,157.5v6.1a.359.359,0,0,1-.4.4h-.52a.359.359,0,0,1-.4-.4v-.723a3.612,3.612,0,0,1-3.1,1.363c-1.84,0-3.58-1.06-3.58-3.22s1.74-3.221,3.58-3.221a3.873,3.873,0,0,1,3.1,1.306V157.5a2.536,2.536,0,0,0-4.922-.781c-.059.24-.18.381-.42.381h-.52a.359.359,0,0,1-.4-.421,3.849,3.849,0,0,1,7.582.821Zm-1.32,3.521c0-1.221-1.18-1.981-2.781-1.981-1.78,0-2.581.84-2.581,1.981s.8,1.98,2.581,1.98C742.412,163,743.592,162.16,743.592,161.02Z"/>
      <path d="M747.471,163.6V150a.358.358,0,0,1,.4-.4h.52a.359.359,0,0,1,.4.4v13.6a.359.359,0,0,1-.4.4h-.52A.358.358,0,0,1,747.471,163.6Z"/>
      <path d="M751.59,163.6V150a.359.359,0,0,1,.4-.4h.52a.359.359,0,0,1,.4.4v13.6a.359.359,0,0,1-.4.4h-.52A.359.359,0,0,1,751.59,163.6Z"/>
      <path d="M677.443,181.379c0,1.641-1.48,2.861-3.7,2.861-2.06,0-3.48-1.04-3.681-2.72a.357.357,0,0,1,.4-.42h.521c.239,0,.36.139.42.379.18,1.1,1.2,1.481,2.34,1.481,1.26,0,2.381-.46,2.381-1.581,0-2.54-5.881-1.02-5.881-4.76,0-1.641,1.479-2.861,3.5-2.861a3.2,3.2,0,0,1,3.481,2.721.358.358,0,0,1-.4.419H676.3c-.241,0-.36-.14-.42-.379a1.927,1.927,0,0,0-2.141-1.481c-1.06,0-2.18.46-2.18,1.581C671.562,179.159,677.443,177.639,677.443,181.379Z"/>
      <path d="M684.043,174.4v.48a.359.359,0,0,1-.4.4h-1.68V183.6a.36.36,0,0,1-.4.4h-.521a.358.358,0,0,1-.4-.4v-8.322h-1.7a.359.359,0,0,1-.4-.4v-.48a.359.359,0,0,1,.4-.4h1.7v-2.8a.358.358,0,0,1,.4-.4h.521a.36.36,0,0,1,.4.4V174h1.68A.359.359,0,0,1,684.043,174.4Z"/>
      <path d="M693.043,177.5v6.1a.359.359,0,0,1-.4.4h-.52a.359.359,0,0,1-.4-.4v-.723a3.609,3.609,0,0,1-3.1,1.363c-1.84,0-3.58-1.06-3.58-3.22s1.74-3.221,3.58-3.221a3.87,3.87,0,0,1,3.1,1.306V177.5a2.535,2.535,0,0,0-4.92-.781c-.061.24-.18.381-.42.381h-.522a.356.356,0,0,1-.4-.421,3.847,3.847,0,0,1,7.58.821Zm-1.32,3.521c0-1.221-1.18-1.981-2.78-1.981-1.781,0-2.582.84-2.582,1.981s.8,1.98,2.582,1.98C690.543,183,691.723,182.16,691.723,181.02Z"/>
      <path d="M700.1,174.4v.48a.36.36,0,0,1-.4.4h-1.68V183.6a.359.359,0,0,1-.4.4H697.1a.358.358,0,0,1-.4-.4v-8.322H695a.359.359,0,0,1-.4-.4v-.48a.359.359,0,0,1,.4-.4h1.7v-2.8a.358.358,0,0,1,.4-.4h.521a.359.359,0,0,1,.4.4V174h1.68A.36.36,0,0,1,700.1,174.4Z"/>
      <path d="M710.883,179.039v.24a.378.378,0,0,1-.42.38h-8.2a3.617,3.617,0,0,0,3.779,3.3,3.251,3.251,0,0,0,2.859-1.42.539.539,0,0,1,.481-.281h.64c.3,0,.459.16.36.4a4.641,4.641,0,0,1-4.362,2.58,5.242,5.242,0,0,1,0-10.482C709.082,173.758,710.883,176.3,710.883,179.039Zm-4.86-4a3.632,3.632,0,0,0-3.763,3.341h7.263a3.471,3.471,0,0,0-3.5-3.341Z"/>
      <path d="M725.684,177.259V183.6a.36.36,0,0,1-.4.4h-.519a.36.36,0,0,1-.4-.4v-6.341c0-1.581-.92-2.221-1.98-2.221-1,0-2.44.64-2.44,2.92V183.6a.359.359,0,0,1-.4.4h-.522a.358.358,0,0,1-.4-.4v-6.341c0-1.581-.922-2.221-1.98-2.221-1,0-2.442.64-2.442,2.92V183.6a.359.359,0,0,1-.4.4h-.52a.359.359,0,0,1-.4-.4v-9.2a.359.359,0,0,1,.4-.4h.52a.359.359,0,0,1,.4.4v.756a3.093,3.093,0,0,1,2.682-1.4,2.932,2.932,0,0,1,2.678,1.686,3.2,3.2,0,0,1,2.962-1.686A3.167,3.167,0,0,1,725.684,177.259Z"/>
      <path d="M737.623,179.039v.24a.377.377,0,0,1-.42.38H729a3.618,3.618,0,0,0,3.779,3.3,3.257,3.257,0,0,0,2.862-1.42.535.535,0,0,1,.48-.281h.639c.3,0,.461.16.361.4a4.639,4.639,0,0,1-4.361,2.58,5.242,5.242,0,0,1,0-10.482C735.822,173.758,737.623,176.3,737.623,179.039Zm-8.625-.66h7.264a3.469,3.469,0,0,0-3.5-3.341A3.634,3.634,0,0,0,729,178.379Z"/>
      <path d="M747.422,177.458V183.6a.359.359,0,0,1-.4.4H746.5a.359.359,0,0,1-.4-.4v-6.142a2.2,2.2,0,0,0-2.321-2.42c-1.359,0-2.84.84-2.84,3.321V183.6a.359.359,0,0,1-.4.4h-.52a.359.359,0,0,1-.4-.4v-9.2a.359.359,0,0,1,.4-.4h.52a.359.359,0,0,1,.4.4v.927a3.542,3.542,0,0,1,6.481,2.133Z"/>
      <path d="M754.48,174.4v.48a.358.358,0,0,1-.4.4H752.4V183.6a.359.359,0,0,1-.4.4h-.52a.359.359,0,0,1-.4-.4v-8.322h-1.7a.358.358,0,0,1-.4-.4v-.48a.358.358,0,0,1,.4-.4h1.7v-2.8a.359.359,0,0,1,.4-.4H752a.359.359,0,0,1,.4.4V174h1.68A.358.358,0,0,1,754.48,174.4Z"/>
      <path d="M762.982,181.379c0,1.641-1.48,2.861-3.7,2.861-2.06,0-3.48-1.04-3.681-2.72a.357.357,0,0,1,.4-.42h.521c.239,0,.36.139.42.379.18,1.1,1.2,1.481,2.34,1.481,1.26,0,2.381-.46,2.381-1.581,0-2.54-5.881-1.02-5.881-4.76,0-1.641,1.479-2.861,3.5-2.861a3.2,3.2,0,0,1,3.481,2.721.358.358,0,0,1-.4.419h-.519c-.24,0-.36-.14-.42-.379a1.927,1.927,0,0,0-2.141-1.481c-1.06,0-2.179.46-2.179,1.581C757.1,179.159,762.982,177.639,762.982,181.379Z"/>
      <path d="M770.281,171.6v-1.2a.359.359,0,0,1,.4-.4h.519a.36.36,0,0,1,.4.4v1.2a.36.36,0,0,1-.4.4h-.519A.36.36,0,0,1,770.281,171.6Zm0,12v-9.2a.359.359,0,0,1,.4-.4h.519a.36.36,0,0,1,.4.4v9.2a.36.36,0,0,1-.4.4h-.519A.359.359,0,0,1,770.281,183.6Z"/>
      <path d="M778.8,173.758a3.418,3.418,0,0,1,3.4,3.7V183.6a.359.359,0,0,1-.4.4h-.52a.358.358,0,0,1-.4-.4v-6.142a2.2,2.2,0,0,0-2.321-2.42c-1.361,0-2.841.84-2.841,3.321V183.6a.359.359,0,0,1-.4.4H774.8a.36.36,0,0,1-.4-.4v-9.2a.36.36,0,0,1,.4-.4h.519a.359.359,0,0,1,.4.4v.927a3.411,3.411,0,0,1,3.08-1.567Z"/>
      <path d="M683.832,190h.6a.358.358,0,0,1,.4.4v13.2a.358.358,0,0,1-.4.4h-.481a.5.5,0,0,1-.48-.26L676.832,192.8v10.8a.359.359,0,0,1-.4.4h-.6a.358.358,0,0,1-.4-.4V190.4a.358.358,0,0,1,.4-.4h.481a.5.5,0,0,1,.48.26l6.643,10.942V190.4A.358.358,0,0,1,683.832,190Z"/>
      <path d="M697.213,199.039v.24a.378.378,0,0,1-.42.38h-8.2a3.618,3.618,0,0,0,3.779,3.3,3.255,3.255,0,0,0,2.861-1.42.538.538,0,0,1,.481-.281h.639c.3,0,.46.16.361.4a4.639,4.639,0,0,1-4.361,2.58,5.242,5.242,0,0,1,0-10.482C695.412,193.758,697.213,196.3,697.213,199.039Zm-8.625-.66h7.264a3.471,3.471,0,0,0-3.5-3.341A3.634,3.634,0,0,0,688.588,198.379Z"/>
      <path d="M698.609,199a5.262,5.262,0,1,1,5.262,5.241A5.2,5.2,0,0,1,698.609,199Zm9.2,0a3.941,3.941,0,1,0-3.941,3.961A3.9,3.9,0,0,0,707.812,199Z"/>
      <path d="M721.033,200.279v.52a.359.359,0,0,1-.4.4h-1.4v2.4a.359.359,0,0,1-.4.4h-.6a.359.359,0,0,1-.4-.4v-2.4h-7a.359.359,0,0,1-.4-.4v-.66a1.085,1.085,0,0,1,.121-.5l4.92-9.362a.485.485,0,0,1,.48-.28h.68c.3,0,.42.2.281.48l-4.941,9.4h5.861V196a.359.359,0,0,1,.4-.4h.6a.359.359,0,0,1,.4.4v3.881h1.4A.359.359,0,0,1,721.033,200.279Z"/>
      <path d="M724.531,194.4v10.4c0,2.261-1.162,3.5-3.2,3.461a.368.368,0,0,1-.4-.4v-.479a.354.354,0,0,1,.381-.4c1.279.02,1.9-.6,1.9-2.18V194.4a.358.358,0,0,1,.4-.4h.522A.359.359,0,0,1,724.531,194.4Zm0-4v1.2a.36.36,0,0,1-.4.4h-.522a.359.359,0,0,1-.4-.4v-1.2a.358.358,0,0,1,.4-.4h.522A.359.359,0,0,1,724.531,190.4Z"/>
      <path d="M741.631,201.259a4.895,4.895,0,0,1-4.641,2.981,5.241,5.241,0,1,1,0-10.482,4.916,4.916,0,0,1,4.641,2.98c.121.281-.039.461-.32.461h-.581a.5.5,0,0,1-.478-.3,3.6,3.6,0,0,0-3.262-1.86,3.961,3.961,0,0,0,0,7.922,3.594,3.594,0,0,0,3.262-1.86.5.5,0,0,1,.478-.3h.581C741.592,200.8,741.752,200.979,741.631,201.259Z"/>
      <path d="M743.789,203.6V190a.359.359,0,0,1,.4-.4h.52a.359.359,0,0,1,.4.4v13.6a.359.359,0,0,1-.4.4h-.52A.359.359,0,0,1,743.789,203.6Z"/>
      <path d="M747.91,191.6v-1.2a.359.359,0,0,1,.4-.4h.519a.359.359,0,0,1,.4.4v1.2a.36.36,0,0,1-.4.4h-.519A.36.36,0,0,1,747.91,191.6Zm0,12v-9.2a.359.359,0,0,1,.4-.4h.519a.359.359,0,0,1,.4.4v9.2a.359.359,0,0,1-.4.4h-.519A.359.359,0,0,1,747.91,203.6Z"/>
      <path d="M761.412,199.039v.24a.377.377,0,0,1-.42.38h-8.2a3.618,3.618,0,0,0,3.779,3.3,3.257,3.257,0,0,0,2.862-1.42.535.535,0,0,1,.48-.281h.639c.3,0,.461.16.361.4a4.639,4.639,0,0,1-4.361,2.58,5.242,5.242,0,0,1,0-10.482C759.611,193.758,761.412,196.3,761.412,199.039Zm-8.625-.66h7.264a3.469,3.469,0,0,0-3.5-3.341A3.634,3.634,0,0,0,752.787,198.379Z"/>
      <path d="M771.211,197.458V203.6a.359.359,0,0,1-.4.4h-.52a.359.359,0,0,1-.4-.4v-6.142a2.2,2.2,0,0,0-2.321-2.42c-1.359,0-2.84.84-2.84,3.321V203.6a.359.359,0,0,1-.4.4h-.519a.36.36,0,0,1-.4-.4v-9.2a.36.36,0,0,1,.4-.4h.519a.359.359,0,0,1,.4.4v.927a3.542,3.542,0,0,1,6.481,2.133Z"/>
      <path d="M778.27,194.4v.48a.359.359,0,0,1-.4.4h-1.68V203.6a.359.359,0,0,1-.4.4h-.519a.36.36,0,0,1-.4-.4v-8.322h-1.7a.358.358,0,0,1-.4-.4v-.48a.358.358,0,0,1,.4-.4h1.7v-2.8a.36.36,0,0,1,.4-.4h.519a.359.359,0,0,1,.4.4V194h1.68A.359.359,0,0,1,778.27,194.4Z"/>
    </g>
  </g>
</svg>
