<svg xmlns="http://www.w3.org/2000/svg" width="830" height="307.844" viewBox="0 0 830 307.844">
  <g>
    <rect width="830" height="307.844" fill="#fff"/>
    <g>
      <g>
        <path d="M544.085,126.232c-15.831,0-26.455,9.217-26.455,27.1V166.08a11.959,11.959,0,0,1,5.162-1.227,11.81,11.81,0,0,1,5.178,1.2V153.271c0-11.6,6.4-17.552,16.16-17.552s16.071,5.955,16.071,17.552v27.862h10.31V153.271C570.541,135.285,559.917,126.232,544.085,126.232Z"/>
        <path d="M576.152,154.363c0-16.265,11.971-28.191,28.835-28.191s28.625,11.971,28.625,28.191v3.786H586.986c1.5,9.547,8.678,14.859,17.956,14.859,6.943,0,11.821-2.17,14.963-6.824h11.373c-4.115,9.966-13.872,16.371-26.336,16.371C588.078,182.555,576.152,170.629,576.152,154.363Zm46.611-5.417c-2.065-8.574-9.1-13.227-17.776-13.227s-15.607,4.773-17.672,13.227Z"/>
        <path d="M639.119,154.363c0-16.25,11.97-28.176,28.834-28.176s28.835,11.971,28.835,28.176-11.971,28.192-28.835,28.192S639.119,170.629,639.119,154.363Zm47.269,0c0-10.833-7.377-18.644-18.435-18.644s-18.42,7.811-18.42,18.644,7.362,18.645,18.4,18.645S686.388,165.212,686.388,154.363Z"/>
        <path d="M755.684,191.8h1.2c6.614,0,9.1-2.993,9.1-10.474v-53.36h10.31v52.671c0,13.228-5.207,20.051-18.435,20.051h-2.17Z"/>
        <path d="M750.537,186.3h-10.31v-12.7H714.116a12.928,12.928,0,0,1-11.762-6.658,11.553,11.553,0,0,1,1.407-12.211l23.433-30.75a12.943,12.943,0,0,1,23.343,7.677v32.8h7.736v9.142h-7.736Zm-38.2-25.946a2.635,2.635,0,0,0-.479,1.5,2.575,2.575,0,0,0,2.559,2.589h25.812v-33.04a2.545,2.545,0,0,0-1.781-2.514,3.532,3.532,0,0,0-.942-.134,2.438,2.438,0,0,0-2.035,1.092Z"/>
        <path d="M771.186,106.076A8.829,8.829,0,1,0,780,114.919V114.9A8.829,8.829,0,0,0,771.186,106.076Z" fill="#018bff"/>
        <path d="M522.343,168.13a8.743,8.743,0,0,0-5.3,1.8l-9.7-6.628a8.986,8.986,0,0,0,.329-2.38,8.814,8.814,0,1,0-8.918,8.708h.09a8.7,8.7,0,0,0,5.3-1.8l9.666,6.674a8.817,8.817,0,0,0,0,4.774l-9.7,6.628a8.7,8.7,0,0,0-5.267-1.8,8.829,8.829,0,1,0,8.813,8.843v-.03a8.965,8.965,0,0,0-.314-2.349l9.7-6.629a8.737,8.737,0,0,0,5.3,1.8,8.828,8.828,0,0,0,0-17.612Z" fill="#018bff"/>
      </g>
      <g>
        <g>
          <rect x="234.259" y="152.922" width="193.748" height="2"/>
          <polygon points="440.007 153.922 428.007 146.994 428.007 160.85 440.007 153.922"/>
        </g>
        <text transform="translate(276.414 181.922)" font-size="20" font-family="QanelasSoft-Regular, Qanelas Soft" letter-spacing="-0.03em">R<tspan x="12" y="0" letter-spacing="0em">ealtime </tspan><tspan x="79.618" y="0" letter-spacing="-0.02em">S</tspan><tspan x="90.218" y="0" letter-spacing="0em">ync</tspan></text>
      </g>
      <g>
        <g>
          <path d="M104.913,49.5l.01-.011,59.246,56.526-.011,0a66.859,66.859,0,0,1,19.251,37.259l.85,10.648A67.128,67.128,0,1,1,99.411,89.165L82.285,73.016,82.306,73A16.3,16.3,0,0,1,104.913,49.5Z" fill="#fc6a31"/>
          <path d="M116.511,111.03l34.82,35.009a9.714,9.714,0,0,1,3.2,5.788l.124,1.545a9.73,9.73,0,0,1-3.312,7.321l-35.052,35.37a10.916,10.916,0,1,1-15.437-15.436l0,0,17.763-17.762H81.741v-.014a9.748,9.748,0,0,1-1.27-19.426,10.207,10.207,0,0,1,1.056-.069h.123c12.16.042,24.32.018,36.479.018l-16.724-16.723a10.874,10.874,0,1,1,15.106-15.617Z" fill="#fff"/>
        </g>
        <text transform="translate(78.67 248.051)" font-size="20" font-family="QanelasSoft-Regular, Qanelas Soft" letter-spacing="0.005em">D<tspan x="14.899" y="0" letter-spacing="0em">octrine</tspan></text>
      </g>
    </g>
  </g>
</svg>
